<svg width="320" height="276" viewBox="0 0 320 276" fill="none" xmlns="http://www.w3.org/2000/svg">
<path d="M235.181 184.683C246.8 181.453 267.986 172.521 275.635 165.829C284.448 158.832 266.397 150.721 264.258 149.505C262.119 148.289 156.91 97.0467 138.55 89.0953C120.189 81.1439 61.6344 96.9325 47.42 104.3C35.8336 110.305 43.9336 114.718 45.4581 115.928C46.9826 117.138 134.57 164.997 166.078 179.652C189.939 190.75 212.373 191.022 235.181 184.683Z" fill="black" fill-opacity="0.1"/>
<path d="M152.114 131.159L158.352 144.591C158.861 146.99 159.669 149.47 160.79 151.939C162.006 154.618 163.481 157.046 165.116 159.157L171.225 172.313L182.611 167.391C182.685 167.362 182.76 167.334 182.834 167.304C189.831 164.382 191.305 152.768 186.127 141.362C180.949 129.955 171.08 123.076 164.083 125.998C164.009 126.028 163.937 126.061 163.865 126.094L163.862 126.088L152.114 131.159Z" fill="black"/>
<ellipse cx="13.6515" cy="22.7969" rx="13.6515" ry="22.7969" transform="matrix(-0.928013 0.387431 0.410949 0.905232 165.127 125.765)" fill="black"/>
<g filter="url(#filter0_i_74_596)">
<ellipse cx="10.2391" cy="17.0985" rx="10.2391" ry="17.0985" transform="matrix(-0.928013 0.387431 0.410949 0.905232 163.902 132.254)" fill="url(#paint0_linear_74_596)"/>
</g>
<g filter="url(#filter1_di_74_596)">
<path d="M162.356 164.42C164.075 165.091 165.772 165.182 167.261 164.56C167.316 164.537 167.37 164.513 167.423 164.488L162.98 156.932C162.801 156.942 162.618 156.93 162.432 156.899L162.356 164.42ZM157.121 160.568C158.373 161.967 159.736 163.078 161.115 163.835L161.19 156.428C160.838 156.221 160.489 155.956 160.155 155.638L157.121 160.568ZM165.05 155.092C164.876 155.685 164.578 156.17 164.163 156.495L168.482 163.842C169.922 162.713 170.817 160.833 171.123 158.537L165.05 155.092ZM153.401 154.709C153.443 154.804 153.482 154.9 153.525 154.994C154.297 156.695 155.239 158.232 156.282 159.564L159.298 154.664C159.023 154.292 158.769 153.883 158.544 153.442L153.401 154.709ZM164.976 151.857C165.156 152.528 165.24 153.18 165.234 153.781L171.234 157.185C171.301 155.158 170.957 152.891 170.176 150.576L164.976 151.857ZM151.621 147.472C151.712 149.385 152.142 151.463 152.932 153.562L158.054 152.299C157.892 151.833 157.776 151.37 157.704 150.923L151.621 147.472ZM163.944 149.483C164.142 149.803 164.325 150.144 164.488 150.504C164.517 150.567 164.545 150.63 164.572 150.693L169.749 149.418C169.614 149.079 169.472 148.74 169.318 148.401C168.665 146.962 167.889 145.64 167.035 144.46L163.944 149.483ZM153.359 140.565C152.304 141.927 151.712 143.842 151.615 146.053L157.627 149.464C157.657 149.019 157.74 148.608 157.874 148.244L153.359 140.565ZM162.525 147.771C162.74 147.961 162.949 148.174 163.151 148.405L166.225 143.41C165.099 142.048 163.866 140.924 162.603 140.089L162.525 147.771ZM161.363 139.367C159.351 138.356 157.324 138.108 155.582 138.835C155.096 139.038 154.654 139.309 154.254 139.638L158.643 147.104C158.798 146.976 158.969 146.87 159.158 146.791C159.801 146.523 160.544 146.596 161.286 146.941L161.363 139.367Z" fill="#4C4C4C"/>
</g>
<path d="M152.119 130.922L158.368 144.376C158.877 146.768 159.684 149.239 160.801 151.7C162.013 154.37 163.482 156.791 165.111 158.896L171.231 172.076L182.601 167.16C182.683 167.129 182.765 167.098 182.846 167.064C189.842 164.143 191.317 152.528 186.139 141.121C180.961 129.716 171.091 122.837 164.095 125.758C164.019 125.79 163.945 125.824 163.87 125.857L163.867 125.851L152.119 130.922Z" fill="black"/>
<path d="M149.02 156.705C154.194 168.102 164.06 174.974 171.057 172.053C178.054 169.131 179.531 157.524 174.357 146.127C169.183 134.73 159.024 127.245 152.027 130.166C145.03 133.087 143.846 145.308 149.02 156.705Z" fill="black"/>
<g filter="url(#filter2_i_74_596)">
<ellipse cx="9.67263" cy="16.3514" rx="9.67263" ry="16.3514" transform="matrix(-0.916712 0.394187 0.400764 0.917902 163.862 132.877)" fill="url(#paint1_linear_74_596)"/>
</g>
<g filter="url(#filter3_di_74_596)">
<path d="M156.272 156.986C158.255 160.225 160.912 162.438 163.395 163.007L160.249 155.941C160.135 155.83 160.023 155.713 159.912 155.59L156.272 156.986ZM165.545 153.432C165.619 154.789 165.306 155.955 164.642 156.651L167.183 162.356C169.569 160.667 170.32 156.554 169.191 152.033L165.545 153.432ZM154.389 142.783C153.002 145.34 153.022 149.472 154.636 153.662L158.034 152.359C157.731 151.492 157.567 150.636 157.535 149.847L154.389 142.783ZM167.967 148.552C165.424 142.977 160.875 139.501 157.381 140.348L159.922 146.051C161.505 145.982 163.398 147.501 164.564 149.857L167.967 148.552Z" fill="#474747"/>
</g>
<path d="M64.663 87.9765L67.6572 99.8197C67.7014 101.826 67.9725 103.939 68.4958 106.088C69.0625 108.414 69.8774 110.576 70.8655 112.51L73.8007 124.124L83.8076 121.75C83.8785 121.736 83.9495 121.723 84.0202 121.707C90.1579 120.331 93.1584 111.108 90.7225 101.106C88.2864 91.1047 81.3359 84.1117 75.1981 85.4875C75.1304 85.5027 75.0632 85.5197 74.9963 85.5368L74.9949 85.5312L64.663 87.9765Z" fill="black"/>
<ellipse cx="11.2398" cy="18.8843" rx="11.2398" ry="18.8843" transform="matrix(-0.988762 0.221631 0.2334 0.95823 76.0622 85.4468)" fill="black"/>
<g filter="url(#filter4_i_74_596)">
<ellipse cx="8.43022" cy="14.1639" rx="8.43022" ry="14.1639" transform="matrix(-0.988762 0.221631 0.2334 0.95823 74.0654 90.5411)" fill="url(#paint2_linear_74_596)"/>
</g>
<g filter="url(#filter5_di_74_596)">
<path d="M67.8114 116.448C69.1038 117.238 70.4689 117.554 71.7756 117.261C71.8226 117.251 71.8692 117.238 71.9156 117.226L69.4799 110.457C69.333 110.439 69.1864 110.405 69.0402 110.353L67.8114 116.448ZM64.1586 112.576C64.9563 113.887 65.8898 114.981 66.8907 115.792L68.1005 109.792C67.8473 109.575 67.6064 109.311 67.385 109.008L64.1586 112.576ZM71.4473 109.249C71.2139 109.708 70.8975 110.061 70.5105 110.268L72.879 116.851C74.2248 116.139 75.2445 114.739 75.8496 112.917L71.4473 109.249ZM62.0442 107.281C62.0636 107.366 62.0813 107.451 62.1018 107.535C62.465 109.026 62.991 110.409 63.6311 111.639L66.8403 108.091C66.6734 107.748 66.5296 107.378 66.4145 106.985L62.0442 107.281ZM71.8828 106.614C71.9255 107.184 71.8933 107.724 71.7956 108.211L76.1479 111.837C76.5174 110.199 76.5899 108.307 76.3143 106.314L71.8828 106.614ZM61.7237 101.15C61.5001 102.718 61.5263 104.468 61.8427 106.287L66.1967 105.991C66.1366 105.586 66.1123 105.192 66.1235 104.815L61.7237 101.15ZM71.4175 104.55C71.5276 104.836 71.6232 105.137 71.6995 105.45C71.713 105.505 71.7233 105.561 71.7354 105.617L76.1476 105.317C76.0905 105.023 76.0281 104.726 75.9557 104.43C75.6486 103.169 75.2249 101.985 74.7147 100.905L71.4175 104.55ZM64.2055 95.7975C63.1386 96.7531 62.3589 98.2206 61.9372 100.001L66.2888 103.625C66.3826 103.268 66.5114 102.945 66.6773 102.668L64.2055 95.7975ZM70.5309 102.96C70.6748 103.145 70.8117 103.345 70.9389 103.56L74.2169 99.9353C73.5139 98.6684 72.6862 97.5796 71.7888 96.721L70.5309 102.96ZM70.8903 95.9555C69.4137 94.8501 67.8075 94.3614 66.281 94.7035C65.8544 94.7992 65.4538 94.9586 65.0777 95.1697L67.4824 101.853C67.627 101.773 67.7808 101.712 67.9445 101.675C68.5088 101.549 69.1009 101.714 69.6511 102.101L70.8903 95.9555Z" fill="#4C4C4C"/>
</g>
<path d="M64.6318 88.2339L67.6129 100.025C67.6533 102.048 67.9251 104.18 68.4533 106.349C69.0246 108.694 69.8478 110.872 70.8469 112.818L73.7695 124.382L83.7667 122.009C83.8369 121.996 83.9074 121.983 83.9774 121.967C90.1151 120.591 93.1157 111.368 90.6797 101.366C88.2436 91.3647 81.2931 84.3717 75.1553 85.7475C75.0914 85.7618 75.0282 85.7781 74.965 85.7941L74.9636 85.7885L64.6318 88.2339Z" fill="black"/>
<ellipse cx="11.3647" cy="19.0942" rx="11.3647" ry="19.0942" transform="matrix(-0.988762 0.221631 0.2334 0.95823 76.104 85.2587)" fill="black"/>
<g filter="url(#filter6_i_74_596)">
<g filter="url(#filter7_i_74_596)">
<ellipse cx="7.9106" cy="13.6732" rx="7.9106" ry="13.6732" transform="matrix(-0.974168 0.27347 0.303267 0.940409 72.1902 92.2922)" fill="url(#paint3_linear_74_596)"/>
</g>
<g filter="url(#filter8_di_74_596)">
<path d="M63.4292 110.919C64.6597 113.743 66.5446 115.853 68.4898 116.669L66.7232 110.429C66.6913 110.385 66.6606 110.34 66.6294 110.295L63.4292 110.919ZM71.4922 109.345C71.3759 110.419 70.9775 111.289 70.3543 111.746L71.7547 116.694C73.9204 115.671 75.0461 112.494 74.6874 108.72L71.4922 109.345ZM63.5389 99.1797C62.1108 101.059 61.6391 104.368 62.4533 107.94L65.4265 107.359C65.2943 106.678 65.2571 106.022 65.3059 105.424L63.5389 99.1797ZM74.0931 105.666C72.6712 100.814 69.3361 97.3791 66.3445 97.5803L67.7462 102.533C69.0656 102.691 70.4479 104.18 71.1251 106.246L74.0931 105.666Z" fill="url(#paint4_linear_74_596)"/>
</g>
</g>
<g filter="url(#filter9_ii_74_596)">
<path d="M175.433 54.0176C153.487 43.1513 136.793 41.0767 122.361 42.366C119.659 42.6074 112.825 41.2687 108.08 42.2213C106.811 42.4763 74.0515 53.5634 62.0111 58.5707C52.805 62.3994 52.2722 65.0938 51.5121 66.705C50.872 68.0621 50.4295 71.1922 50.4963 73.4704C50.5073 73.8509 50.4508 74.2317 50.3549 74.5999C50.0353 75.8281 49.649 78.2257 49.5326 79.2266C48.7565 85.9042 48.9744 92.0748 50.2574 98.6744C50.6793 100.843 57.5222 106.591 57.5846 105.937C57.6466 105.282 57.2353 101.928 57.6333 98.1465C57.9224 95.3995 59.2764 90.4755 64.0829 89.0855C68.8892 87.6957 74.1264 91.7638 77.688 97.8654C82.7684 106.569 81.0926 114.307 81.5077 119.334C81.5717 120.108 82.0729 120.761 82.7681 121.11L143.338 151.518C143.76 151.729 144.205 151.806 144.626 151.773L146.689 152.819C146.779 151.254 146.677 150.647 146.532 150.242C146.587 150.002 146.596 149.739 146.549 149.46C146.45 148.876 146.343 148.322 146.3 147.44C146.171 144.758 145.658 133.531 153.842 130.919C161.054 128.618 170.108 137.375 174.331 144.445C176.099 147.404 177.695 151.905 178.904 156.467C180.017 160.917 180.758 165.386 180.968 168.501C181.119 168.577 181.312 168.673 181.542 168.79C181.77 169.092 182.066 169.342 182.421 169.511C184.022 170.273 186.686 171.469 190.059 172.711C199.413 176.531 214.106 180.922 226.83 177.238C264.337 166.379 272.154 155.578 273.781 152.627C275.411 149.669 275.046 147.012 275.149 144.617L275.211 138.503C275.26 133.648 275.351 129.488 275.319 127.893C275.286 126.298 277.169 121.706 268.423 113.075C260.571 105.325 224.392 85.8729 220.059 84.7155C219.668 84.6111 219.222 84.4032 218.719 84.1053C215.72 81.698 210.184 76.4303 201.897 70.2446C196.993 66.3888 191.092 62.1942 184.08 58.2285C181.273 56.6405 178.37 55.245 175.433 54.0176Z" fill="url(#paint5_linear_74_596)"/>
</g>
<g filter="url(#filter10_ddi_74_596)">
<path d="M160.59 107.313C152.765 104.122 148.382 94.0055 136.879 81.9965C136.258 81.3474 136.491 80.2673 137.332 79.9541L186.123 61.774C186.302 61.7074 186.49 61.684 186.674 61.7331C187.874 62.0525 193.148 64.0074 206.611 75.5677C213.68 81.6373 215.092 83.2139 218.751 85.626C219.33 86.0076 219.22 86.8336 217.063 88.4994C210.186 93.8095 172.399 112.128 160.59 107.313Z" fill="url(#paint6_linear_74_596)"/>
</g>
<g filter="url(#filter11_di_74_596)">
<path d="M104.453 66.3436C93.9459 63.0638 92.4555 63.3436 84.3623 63.2616C79.3477 63.2109 71.0024 62.8591 70.1133 65.0066C69.2243 67.154 78.7791 74.0238 82.7412 76.1728C84.6776 77.2231 151.515 110.102 149.418 106.275C146.834 101.56 134.859 88.0444 130.778 82.5338C123.975 73.3463 114.96 69.6235 104.453 66.3436Z" fill="url(#paint7_linear_74_596)"/>
</g>
<g filter="url(#filter12_di_74_596)">
<path d="M80.6328 59.7536L125.024 42.974C125.024 42.974 124.029 43.2982 118.604 43.1668C116.711 43.1209 70.6387 60.7015 70.3006 60.9801L80.6328 59.7536Z" fill="url(#paint8_linear_74_596)"/>
</g>
<g filter="url(#filter13_f_74_596)">
<path d="M180.673 130.748C163.769 123.024 154.323 113.449 144.181 104.681C174.558 113.63 238.13 133.186 237.119 134.406C235.854 135.932 231.256 137.71 216.029 138.538C201.037 139.352 182.609 131.632 180.673 130.748Z" fill="url(#paint9_linear_74_596)" fill-opacity="0.21"/>
</g>
<g filter="url(#filter14_di_74_596)">
<path d="M120.487 107.745C120.49 107.375 120.279 107.039 119.941 106.878L114.966 104.501C114.302 104.184 113.514 104.665 113.507 105.391C113.503 105.763 113.716 106.1 114.056 106.262L119.035 108.631C119.696 108.945 120.479 108.467 120.487 107.745Z" fill="#323232"/>
</g>
<g filter="url(#filter15_di_74_596)">
<path d="M88.13 93.6993C88.1338 93.3296 87.9225 92.9938 87.5845 92.8323L82.6096 90.4561C81.9456 90.1389 81.1574 90.6193 81.1501 91.3455C81.1463 91.7173 81.3592 92.055 81.6994 92.2168L86.6782 94.5855C87.3392 94.9 88.1227 94.4217 88.13 93.6993Z" fill="#323232"/>
</g>
<path d="M193.735 100.546L155.305 73.1801C150.86 74.2833 140.729 78.5012 138.8 79.1724C136.301 80.0421 135.882 80.5366 135.882 80.5366C135.874 81.2559 136.255 81.5745 137.453 82.7107C139.169 84.3396 139.896 85.0888 144.136 90.3768C150.243 97.9921 154.877 105.067 159.371 106.799C162.946 108.177 168.532 109.407 176.523 106.973C183.666 104.797 188.075 102.302 193.735 100.546Z" fill="#C4C4C4" fill-opacity="0.2"/>
<g opacity="0.17" filter="url(#filter16_f_74_596)">
<path d="M262.153 122.612C251.527 130.488 227.951 141.661 217.459 143.295" stroke="url(#paint10_linear_74_596)" stroke-width="40.796" stroke-linecap="round" stroke-linejoin="round"/>
</g>
<g filter="url(#filter17_dii_74_596)">
<path d="M270.167 125.607C272.194 123.044 271.703 120.963 271.433 117.754C271.416 117.554 271.37 117.354 271.314 117.162C270.669 114.934 274.309 120.232 274.666 123.901C274.786 125.142 274.696 125.768 274.563 126.911C274.502 127.434 273.345 130.618 273.505 131.309C273.665 132.001 273.249 136.752 273.267 137.47C273.286 138.189 270.095 143.504 261.804 148.577C254.916 152.791 245.06 155.503 244.051 155.632C243.042 155.76 242.088 152.517 241.358 152.331C239.449 151.844 233.775 153.773 231.66 154.26C229.191 154.827 223.431 156.135 217.158 155.299C209.4 154.266 208.22 153.409 201.117 149.616C197.477 147.673 194.672 144.351 193.027 141.703C192.111 140.228 193.387 138.897 195.034 139.443C200.417 141.226 209.603 144.2 219.851 145.31C236.977 147.165 250.596 139.508 252.547 138.407C260.749 133.78 265.05 132.082 270.167 125.607Z" fill="#211F1F"/>
</g>
<mask id="mask0_74_596" style="mask-type:alpha" maskUnits="userSpaceOnUse" x="192" y="122" width="84" height="34">
<path d="M270.178 125.576C270.466 125.211 270.707 124.834 270.906 124.451C272.054 122.241 274.793 120.875 275.368 123.309C275.431 123.575 275.477 123.814 275.508 124.023C275.629 125.264 275.59 126.051 275.457 127.194C275.397 127.717 273.358 130.584 273.519 131.276C273.679 131.967 273.267 136.718 273.286 137.437C273.304 138.156 270.117 143.472 261.829 148.55C254.944 152.769 245.09 155.487 244.082 155.616C243.073 155.745 242.116 152.502 241.386 152.317C239.477 151.831 233.805 153.764 231.689 154.252C229.221 154.821 223.462 156.132 217.189 155.3C209.43 154.271 208.249 153.415 201.143 149.627C197.502 147.686 194.695 144.365 193.048 141.718C192.131 140.244 193.407 138.912 195.055 139.457C200.439 141.238 209.626 144.205 219.874 145.309C237.001 147.154 250.616 139.488 252.566 138.387C260.765 133.754 265.065 132.054 270.178 125.576Z" fill="#999999"/>
</mask>
<g mask="url(#mask0_74_596)">
<g filter="url(#filter18_d_74_596)">
<path d="M226.21 143.062C226.262 143.481 226.258 143.948 226.134 144.406C225.985 144.956 225.643 145.583 224.817 146.162C223.959 146.763 222.505 147.362 220.071 147.65C218.679 147.814 216.704 147.79 214.672 147.4C212.632 147.008 210.67 146.273 209.189 145.12C208.559 144.628 207.73 143.654 206.93 142.589L226.21 143.062Z" stroke="white" stroke-opacity="0.9" stroke-width="3.65416"/>
</g>
<g filter="url(#filter19_d_74_596)">
<path d="M271.027 121.7C271.134 122.53 271.048 123.461 270.569 124.424C270.53 124.501 270.49 124.559 270.455 124.605C270.089 124.349 269.684 124.203 269.322 124.119L271.027 121.7Z" stroke="white" stroke-opacity="0.9" stroke-width="3.65416"/>
</g>
</g>
<defs>
<filter id="filter0_i_74_596" x="149.608" y="135.716" width="23.6372" height="31.9645" filterUnits="userSpaceOnUse" color-interpolation-filters="sRGB">
<feFlood flood-opacity="0" result="BackgroundImageFix"/>
<feBlend mode="normal" in="SourceGraphic" in2="BackgroundImageFix" result="shape"/>
<feColorMatrix in="SourceAlpha" type="matrix" values="0 0 0 0 0 0 0 0 0 0 0 0 0 0 0 0 0 0 127 0" result="hardAlpha"/>
<feMorphology radius="0.618122" operator="erode" in="SourceAlpha" result="effect1_innerShadow_74_596"/>
<feOffset/>
<feGaussianBlur stdDeviation="0.309061"/>
<feComposite in2="hardAlpha" operator="arithmetic" k2="-1" k3="1"/>
<feColorMatrix type="matrix" values="0 0 0 0 0 0 0 0 0 0 0 0 0 0 0 0 0 0 0.25 0"/>
<feBlend mode="normal" in2="shape" result="effect1_innerShadow_74_596"/>
</filter>
<filter id="filter1_di_74_596" x="149.76" y="138.293" width="21.8521" height="27.922" filterUnits="userSpaceOnUse" color-interpolation-filters="sRGB">
<feFlood flood-opacity="0" result="BackgroundImageFix"/>
<feColorMatrix in="SourceAlpha" type="matrix" values="0 0 0 0 0 0 0 0 0 0 0 0 0 0 0 0 0 0 127 0" result="hardAlpha"/>
<feOffset dy="0.247249"/>
<feGaussianBlur stdDeviation="0.185437"/>
<feColorMatrix type="matrix" values="0 0 0 0 1 0 0 0 0 1 0 0 0 0 1 0 0 0 0.41 0"/>
<feBlend mode="normal" in2="BackgroundImageFix" result="effect1_dropShadow_74_596"/>
<feBlend mode="normal" in="SourceGraphic" in2="effect1_dropShadow_74_596" result="shape"/>
<feColorMatrix in="SourceAlpha" type="matrix" values="0 0 0 0 0 0 0 0 0 0 0 0 0 0 0 0 0 0 127 0" result="hardAlpha"/>
<feOffset dx="-1.85437" dy="1.23624"/>
<feGaussianBlur stdDeviation="0.927183"/>
<feComposite in2="hardAlpha" operator="arithmetic" k2="-1" k3="1"/>
<feColorMatrix type="matrix" values="0 0 0 0 0 0 0 0 0 0 0 0 0 0 0 0 0 0 0.25 0"/>
<feBlend mode="normal" in2="shape" result="effect2_innerShadow_74_596"/>
</filter>
<filter id="filter2_i_74_596" x="150.521" y="136.21" width="22.0529" height="30.9789" filterUnits="userSpaceOnUse" color-interpolation-filters="sRGB">
<feFlood flood-opacity="0" result="BackgroundImageFix"/>
<feBlend mode="normal" in="SourceGraphic" in2="BackgroundImageFix" result="shape"/>
<feColorMatrix in="SourceAlpha" type="matrix" values="0 0 0 0 0 0 0 0 0 0 0 0 0 0 0 0 0 0 127 0" result="hardAlpha"/>
<feMorphology radius="0.453839" operator="erode" in="SourceAlpha" result="effect1_innerShadow_74_596"/>
<feOffset/>
<feGaussianBlur stdDeviation="0.22692"/>
<feComposite in2="hardAlpha" operator="arithmetic" k2="-1" k3="1"/>
<feColorMatrix type="matrix" values="0 0 0 0 0 0 0 0 0 0 0 0 0 0 0 0 0 0 0.25 0"/>
<feBlend mode="normal" in2="shape" result="effect1_innerShadow_74_596"/>
</filter>
<filter id="filter3_di_74_596" x="151.531" y="140.097" width="18.5464" height="24.1458" filterUnits="userSpaceOnUse" color-interpolation-filters="sRGB">
<feFlood flood-opacity="0" result="BackgroundImageFix"/>
<feColorMatrix in="SourceAlpha" type="matrix" values="0 0 0 0 0 0 0 0 0 0 0 0 0 0 0 0 0 0 127 0" result="hardAlpha"/>
<feOffset dy="0.247249"/>
<feGaussianBlur stdDeviation="0.185437"/>
<feColorMatrix type="matrix" values="0 0 0 0 1 0 0 0 0 1 0 0 0 0 1 0 0 0 0.41 0"/>
<feBlend mode="normal" in2="BackgroundImageFix" result="effect1_dropShadow_74_596"/>
<feBlend mode="normal" in="SourceGraphic" in2="effect1_dropShadow_74_596" result="shape"/>
<feColorMatrix in="SourceAlpha" type="matrix" values="0 0 0 0 0 0 0 0 0 0 0 0 0 0 0 0 0 0 127 0" result="hardAlpha"/>
<feOffset dx="-1.85436" dy="1.23624"/>
<feGaussianBlur stdDeviation="0.927182"/>
<feComposite in2="hardAlpha" operator="arithmetic" k2="-1" k3="1"/>
<feColorMatrix type="matrix" values="0 0 0 0 0 0 0 0 0 0 0 0 0 0 0 0 0 0 0.25 0"/>
<feBlend mode="normal" in2="shape" result="effect2_innerShadow_74_596"/>
</filter>
<filter id="filter4_i_74_596" x="60.0663" y="92.2799" width="17.939" height="27.4038" filterUnits="userSpaceOnUse" color-interpolation-filters="sRGB">
<feFlood flood-opacity="0" result="BackgroundImageFix"/>
<feBlend mode="normal" in="SourceGraphic" in2="BackgroundImageFix" result="shape"/>
<feColorMatrix in="SourceAlpha" type="matrix" values="0 0 0 0 0 0 0 0 0 0 0 0 0 0 0 0 0 0 127 0" result="hardAlpha"/>
<feMorphology radius="0.510453" operator="erode" in="SourceAlpha" result="effect1_innerShadow_74_596"/>
<feOffset/>
<feGaussianBlur stdDeviation="0.255226"/>
<feComposite in2="hardAlpha" operator="arithmetic" k2="-1" k3="1"/>
<feColorMatrix type="matrix" values="0 0 0 0 0 0 0 0 0 0 0 0 0 0 0 0 0 0 0.25 0"/>
<feBlend mode="normal" in2="shape" result="effect1_innerShadow_74_596"/>
</filter>
<filter id="filter5_di_74_596" x="60.0457" y="94.4939" width="16.7418" height="23.8959" filterUnits="userSpaceOnUse" color-interpolation-filters="sRGB">
<feFlood flood-opacity="0" result="BackgroundImageFix"/>
<feColorMatrix in="SourceAlpha" type="matrix" values="0 0 0 0 0 0 0 0 0 0 0 0 0 0 0 0 0 0 127 0" result="hardAlpha"/>
<feOffset dy="0.204181"/>
<feGaussianBlur stdDeviation="0.153136"/>
<feColorMatrix type="matrix" values="0 0 0 0 1 0 0 0 0 1 0 0 0 0 1 0 0 0 0.41 0"/>
<feBlend mode="normal" in2="BackgroundImageFix" result="effect1_dropShadow_74_596"/>
<feBlend mode="normal" in="SourceGraphic" in2="effect1_dropShadow_74_596" result="shape"/>
<feColorMatrix in="SourceAlpha" type="matrix" values="0 0 0 0 0 0 0 0 0 0 0 0 0 0 0 0 0 0 127 0" result="hardAlpha"/>
<feOffset dx="-1.53136" dy="1.02091"/>
<feGaussianBlur stdDeviation="0.76568"/>
<feComposite in2="hardAlpha" operator="arithmetic" k2="-1" k3="1"/>
<feColorMatrix type="matrix" values="0 0 0 0 0 0 0 0 0 0 0 0 0 0 0 0 0 0 0.25 0"/>
<feBlend mode="normal" in2="shape" result="effect2_innerShadow_74_596"/>
</filter>
<filter id="filter6_i_74_596" x="59.8778" y="94.2728" width="17.5055" height="26.0823" filterUnits="userSpaceOnUse" color-interpolation-filters="sRGB">
<feFlood flood-opacity="0" result="BackgroundImageFix"/>
<feBlend mode="normal" in="SourceGraphic" in2="BackgroundImageFix" result="shape"/>
<feColorMatrix in="SourceAlpha" type="matrix" values="0 0 0 0 0 0 0 0 0 0 0 0 0 0 0 0 0 0 127 0" result="hardAlpha"/>
<feMorphology radius="0.453839" operator="erode" in="SourceAlpha" result="effect1_innerShadow_74_596"/>
<feOffset/>
<feGaussianBlur stdDeviation="0.22692"/>
<feComposite in2="hardAlpha" operator="arithmetic" k2="-1" k3="1"/>
<feColorMatrix type="matrix" values="0 0 0 0 0 0 0 0 0 0 0 0 0 0 0 0 0 0 0.25 0"/>
<feBlend mode="normal" in2="shape" result="effect1_innerShadow_74_596"/>
</filter>
<filter id="filter7_i_74_596" x="59.8778" y="94.2728" width="17.5055" height="26.0823" filterUnits="userSpaceOnUse" color-interpolation-filters="sRGB">
<feFlood flood-opacity="0" result="BackgroundImageFix"/>
<feBlend mode="normal" in="SourceGraphic" in2="BackgroundImageFix" result="shape"/>
<feColorMatrix in="SourceAlpha" type="matrix" values="0 0 0 0 0 0 0 0 0 0 0 0 0 0 0 0 0 0 127 0" result="hardAlpha"/>
<feMorphology radius="0.459401" operator="erode" in="SourceAlpha" result="effect1_innerShadow_74_596"/>
<feOffset/>
<feGaussianBlur stdDeviation="0.229701"/>
<feComposite in2="hardAlpha" operator="arithmetic" k2="-1" k3="1"/>
<feColorMatrix type="matrix" values="0 0 0 0 0 0 0 0 0 0 0 0 0 0 0 0 0 0 0.25 0"/>
<feBlend mode="normal" in2="shape" result="effect1_innerShadow_74_596"/>
</filter>
<filter id="filter8_di_74_596" x="60.2011" y="97.4483" width="14.9229" height="20.4822" filterUnits="userSpaceOnUse" color-interpolation-filters="sRGB">
<feFlood flood-opacity="0" result="BackgroundImageFix"/>
<feColorMatrix in="SourceAlpha" type="matrix" values="0 0 0 0 0 0 0 0 0 0 0 0 0 0 0 0 0 0 127 0" result="hardAlpha"/>
<feOffset dy="0.247249"/>
<feGaussianBlur stdDeviation="0.185437"/>
<feColorMatrix type="matrix" values="0 0 0 0 1 0 0 0 0 1 0 0 0 0 1 0 0 0 0.41 0"/>
<feBlend mode="normal" in2="BackgroundImageFix" result="effect1_dropShadow_74_596"/>
<feBlend mode="normal" in="SourceGraphic" in2="effect1_dropShadow_74_596" result="shape"/>
<feColorMatrix in="SourceAlpha" type="matrix" values="0 0 0 0 0 0 0 0 0 0 0 0 0 0 0 0 0 0 127 0" result="hardAlpha"/>
<feOffset dx="-1.85437" dy="1.23624"/>
<feGaussianBlur stdDeviation="0.927183"/>
<feComposite in2="hardAlpha" operator="arithmetic" k2="-1" k3="1"/>
<feColorMatrix type="matrix" values="0 0 0 0 0 0 0 0 0 0 0 0 0 0 0 0 0 0 0.25 0"/>
<feBlend mode="normal" in2="shape" result="effect2_innerShadow_74_596"/>
</filter>
<filter id="filter9_ii_74_596" x="49.0823" y="36.9295" width="230.095" height="141.697" filterUnits="userSpaceOnUse" color-interpolation-filters="sRGB">
<feFlood flood-opacity="0" result="BackgroundImageFix"/>
<feBlend mode="normal" in="SourceGraphic" in2="BackgroundImageFix" result="shape"/>
<feColorMatrix in="SourceAlpha" type="matrix" values="0 0 0 0 0 0 0 0 0 0 0 0 0 0 0 0 0 0 127 0" result="hardAlpha"/>
<feOffset dx="3.70873" dy="-4.94497"/>
<feGaussianBlur stdDeviation="14.8349"/>
<feComposite in2="hardAlpha" operator="arithmetic" k2="-1" k3="1"/>
<feColorMatrix type="matrix" values="0 0 0 0 0 0 0 0 0 0 0 0 0 0 0 0 0 0 0.07 0"/>
<feBlend mode="normal" in2="shape" result="effect1_innerShadow_74_596"/>
<feColorMatrix in="SourceAlpha" type="matrix" values="0 0 0 0 0 0 0 0 0 0 0 0 0 0 0 0 0 0 127 0" result="hardAlpha"/>
<feOffset dy="-0.618122"/>
<feGaussianBlur stdDeviation="1.23624"/>
<feComposite in2="hardAlpha" operator="arithmetic" k2="-1" k3="1"/>
<feColorMatrix type="matrix" values="0 0 0 0 0 0 0 0 0 0 0 0 0 0 0 0 0 0 0.25 0"/>
<feBlend mode="normal" in2="effect1_innerShadow_74_596" result="effect2_innerShadow_74_596"/>
</filter>
<filter id="filter10_ddi_74_596" x="134.055" y="59.8525" width="86.232" height="50.1133" filterUnits="userSpaceOnUse" color-interpolation-filters="sRGB">
<feFlood flood-opacity="0" result="BackgroundImageFix"/>
<feColorMatrix in="SourceAlpha" type="matrix" values="0 0 0 0 0 0 0 0 0 0 0 0 0 0 0 0 0 0 127 0" result="hardAlpha"/>
<feOffset dx="-1.23624" dy="0.618122"/>
<feGaussianBlur stdDeviation="0.618122"/>
<feColorMatrix type="matrix" values="0 0 0 0 1 0 0 0 0 1 0 0 0 0 1 0 0 0 0.28 0"/>
<feBlend mode="normal" in2="BackgroundImageFix" result="effect1_dropShadow_74_596"/>
<feColorMatrix in="SourceAlpha" type="matrix" values="0 0 0 0 0 0 0 0 0 0 0 0 0 0 0 0 0 0 127 0" result="hardAlpha"/>
<feOffset dy="-0.618122"/>
<feGaussianBlur stdDeviation="0.618122"/>
<feColorMatrix type="matrix" values="0 0 0 0 1 0 0 0 0 1 0 0 0 0 1 0 0 0 0.56 0"/>
<feBlend mode="normal" in2="effect1_dropShadow_74_596" result="effect2_dropShadow_74_596"/>
<feBlend mode="normal" in="SourceGraphic" in2="effect2_dropShadow_74_596" result="shape"/>
<feColorMatrix in="SourceAlpha" type="matrix" values="0 0 0 0 0 0 0 0 0 0 0 0 0 0 0 0 0 0 127 0" result="hardAlpha"/>
<feOffset dx="-0.618122" dy="1.85437"/>
<feGaussianBlur stdDeviation="0.927183"/>
<feComposite in2="hardAlpha" operator="arithmetic" k2="-1" k3="1"/>
<feColorMatrix type="matrix" values="0 0 0 0 0 0 0 0 0 0 0 0 0 0 0 0 0 0 0.75 0"/>
<feBlend mode="normal" in2="shape" result="effect3_innerShadow_74_596"/>
</filter>
<filter id="filter11_di_74_596" x="67.5828" y="63.2097" width="82.5224" height="45.8474" filterUnits="userSpaceOnUse" color-interpolation-filters="sRGB">
<feFlood flood-opacity="0" result="BackgroundImageFix"/>
<feColorMatrix in="SourceAlpha" type="matrix" values="0 0 0 0 0 0 0 0 0 0 0 0 0 0 0 0 0 0 127 0" result="hardAlpha"/>
<feOffset dy="0.639218"/>
<feGaussianBlur stdDeviation="0.319609"/>
<feColorMatrix type="matrix" values="0 0 0 0 0.925374 0 0 0 0 0.925374 0 0 0 0 0.925374 0 0 0 0.37 0"/>
<feBlend mode="normal" in2="BackgroundImageFix" result="effect1_dropShadow_74_596"/>
<feBlend mode="normal" in="SourceGraphic" in2="effect1_dropShadow_74_596" result="shape"/>
<feColorMatrix in="SourceAlpha" type="matrix" values="0 0 0 0 0 0 0 0 0 0 0 0 0 0 0 0 0 0 127 0" result="hardAlpha"/>
<feOffset dx="-2.47249" dy="3.09061"/>
<feGaussianBlur stdDeviation="1.23624"/>
<feComposite in2="hardAlpha" operator="arithmetic" k2="-1" k3="1"/>
<feColorMatrix type="matrix" values="0 0 0 0 0 0 0 0 0 0 0 0 0 0 0 0 0 0 0.8 0"/>
<feBlend mode="normal" in2="shape" result="effect2_innerShadow_74_596"/>
</filter>
<filter id="filter12_di_74_596" x="67.8281" y="42.974" width="57.8348" height="20.4786" filterUnits="userSpaceOnUse" color-interpolation-filters="sRGB">
<feFlood flood-opacity="0" result="BackgroundImageFix"/>
<feColorMatrix in="SourceAlpha" type="matrix" values="0 0 0 0 0 0 0 0 0 0 0 0 0 0 0 0 0 0 127 0" result="hardAlpha"/>
<feOffset dy="0.639218"/>
<feGaussianBlur stdDeviation="0.319609"/>
<feColorMatrix type="matrix" values="0 0 0 0 0.925374 0 0 0 0 0.925374 0 0 0 0 0.925374 0 0 0 0.37 0"/>
<feBlend mode="normal" in2="BackgroundImageFix" result="effect1_dropShadow_74_596"/>
<feBlend mode="normal" in="SourceGraphic" in2="effect1_dropShadow_74_596" result="shape"/>
<feColorMatrix in="SourceAlpha" type="matrix" values="0 0 0 0 0 0 0 0 0 0 0 0 0 0 0 0 0 0 127 0" result="hardAlpha"/>
<feOffset dx="-2.47249" dy="3.09061"/>
<feGaussianBlur stdDeviation="1.23624"/>
<feComposite in2="hardAlpha" operator="arithmetic" k2="-1" k3="1"/>
<feColorMatrix type="matrix" values="0 0 0 0 0 0 0 0 0 0 0 0 0 0 0 0 0 0 0.8 0"/>
<feBlend mode="normal" in2="shape" result="effect2_innerShadow_74_596"/>
</filter>
<filter id="filter13_f_74_596" x="126.874" y="87.3733" width="127.564" height="68.5318" filterUnits="userSpaceOnUse" color-interpolation-filters="sRGB">
<feFlood flood-opacity="0" result="BackgroundImageFix"/>
<feBlend mode="normal" in="SourceGraphic" in2="BackgroundImageFix" result="shape"/>
<feGaussianBlur stdDeviation="8.65371" result="effect1_foregroundBlur_74_596"/>
</filter>
<filter id="filter14_di_74_596" x="113.2" y="103.789" width="7.59319" height="6.47317" filterUnits="userSpaceOnUse" color-interpolation-filters="sRGB">
<feFlood flood-opacity="0" result="BackgroundImageFix"/>
<feColorMatrix in="SourceAlpha" type="matrix" values="0 0 0 0 0 0 0 0 0 0 0 0 0 0 0 0 0 0 127 0" result="hardAlpha"/>
<feOffset dy="-0.306575"/>
<feGaussianBlur stdDeviation="0.153288"/>
<feColorMatrix type="matrix" values="0 0 0 0 0.78755 0 0 0 0 0.78755 0 0 0 0 0.78755 0 0 0 0.19 0"/>
<feBlend mode="normal" in2="BackgroundImageFix" result="effect1_dropShadow_74_596"/>
<feBlend mode="normal" in="SourceGraphic" in2="effect1_dropShadow_74_596" result="shape"/>
<feColorMatrix in="SourceAlpha" type="matrix" values="0 0 0 0 0 0 0 0 0 0 0 0 0 0 0 0 0 0 127 0" result="hardAlpha"/>
<feOffset dy="1.53287"/>
<feGaussianBlur stdDeviation="0.766437"/>
<feComposite in2="hardAlpha" operator="arithmetic" k2="-1" k3="1"/>
<feColorMatrix type="matrix" values="0 0 0 0 0 0 0 0 0 0 0 0 0 0 0 0 0 0 0.74 0"/>
<feBlend mode="normal" in2="shape" result="effect2_innerShadow_74_596"/>
</filter>
<filter id="filter15_di_74_596" x="80.8435" y="89.7435" width="7.59319" height="6.47317" filterUnits="userSpaceOnUse" color-interpolation-filters="sRGB">
<feFlood flood-opacity="0" result="BackgroundImageFix"/>
<feColorMatrix in="SourceAlpha" type="matrix" values="0 0 0 0 0 0 0 0 0 0 0 0 0 0 0 0 0 0 127 0" result="hardAlpha"/>
<feOffset dy="-0.306575"/>
<feGaussianBlur stdDeviation="0.153288"/>
<feColorMatrix type="matrix" values="0 0 0 0 0.78755 0 0 0 0 0.78755 0 0 0 0 0.78755 0 0 0 0.19 0"/>
<feBlend mode="normal" in2="BackgroundImageFix" result="effect1_dropShadow_74_596"/>
<feBlend mode="normal" in="SourceGraphic" in2="effect1_dropShadow_74_596" result="shape"/>
<feColorMatrix in="SourceAlpha" type="matrix" values="0 0 0 0 0 0 0 0 0 0 0 0 0 0 0 0 0 0 127 0" result="hardAlpha"/>
<feOffset dy="1.53287"/>
<feGaussianBlur stdDeviation="0.766437"/>
<feComposite in2="hardAlpha" operator="arithmetic" k2="-1" k3="1"/>
<feColorMatrix type="matrix" values="0 0 0 0 0 0 0 0 0 0 0 0 0 0 0 0 0 0 0.74 0"/>
<feBlend mode="normal" in2="shape" result="effect2_innerShadow_74_596"/>
</filter>
<filter id="filter16_f_74_596" x="190.876" y="96.033" width="97.8583" height="73.8427" filterUnits="userSpaceOnUse" color-interpolation-filters="sRGB">
<feFlood flood-opacity="0" result="BackgroundImageFix"/>
<feBlend mode="normal" in="SourceGraphic" in2="BackgroundImageFix" result="shape"/>
<feGaussianBlur stdDeviation="3.09061" result="effect1_foregroundBlur_74_596"/>
</filter>
<filter id="filter17_dii_74_596" x="189.253" y="113.743" width="88.9362" height="45.9373" filterUnits="userSpaceOnUse" color-interpolation-filters="sRGB">
<feFlood flood-opacity="0" result="BackgroundImageFix"/>
<feColorMatrix in="SourceAlpha" type="matrix" values="0 0 0 0 0 0 0 0 0 0 0 0 0 0 0 0 0 0 127 0" result="hardAlpha"/>
<feOffset dy="0.577886"/>
<feGaussianBlur stdDeviation="1.73366"/>
<feColorMatrix type="matrix" values="0 0 0 0 0 0 0 0 0 0 0 0 0 0 0 0 0 0 0.85 0"/>
<feBlend mode="normal" in2="BackgroundImageFix" result="effect1_dropShadow_74_596"/>
<feBlend mode="normal" in="SourceGraphic" in2="effect1_dropShadow_74_596" result="shape"/>
<feColorMatrix in="SourceAlpha" type="matrix" values="0 0 0 0 0 0 0 0 0 0 0 0 0 0 0 0 0 0 127 0" result="hardAlpha"/>
<feOffset dy="0.577886"/>
<feGaussianBlur stdDeviation="0.577886"/>
<feComposite in2="hardAlpha" operator="arithmetic" k2="-1" k3="1"/>
<feColorMatrix type="matrix" values="0 0 0 0 0 0 0 0 0 0 0 0 0 0 0 0 0 0 0.25 0"/>
<feBlend mode="normal" in2="shape" result="effect2_innerShadow_74_596"/>
<feColorMatrix in="SourceAlpha" type="matrix" values="0 0 0 0 0 0 0 0 0 0 0 0 0 0 0 0 0 0 127 0" result="hardAlpha"/>
<feOffset dy="-0.577886"/>
<feGaussianBlur stdDeviation="0.577886"/>
<feComposite in2="hardAlpha" operator="arithmetic" k2="-1" k3="1"/>
<feColorMatrix type="matrix" values="0 0 0 0 0 0 0 0 0 0 0 0 0 0 0 0 0 0 0.25 0"/>
<feBlend mode="normal" in2="effect2_innerShadow_74_596" result="effect3_innerShadow_74_596"/>
</filter>
<filter id="filter18_d_74_596" x="203.118" y="140.68" width="27.6864" height="11.9148" filterUnits="userSpaceOnUse" color-interpolation-filters="sRGB">
<feFlood flood-opacity="0" result="BackgroundImageFix"/>
<feColorMatrix in="SourceAlpha" type="matrix" values="0 0 0 0 0 0 0 0 0 0 0 0 0 0 0 0 0 0 127 0" result="hardAlpha"/>
<feOffset dx="1.21805" dy="1.51305"/>
<feGaussianBlur stdDeviation="0.756525"/>
<feColorMatrix type="matrix" values="0 0 0 0 1 0 0 0 0 1 0 0 0 0 1 0 0 0 0.24 0"/>
<feBlend mode="normal" in2="BackgroundImageFix" result="effect1_dropShadow_74_596"/>
<feBlend mode="normal" in="SourceGraphic" in2="effect1_dropShadow_74_596" result="shape"/>
</filter>
<filter id="filter19_d_74_596" x="265.496" y="117.923" width="10.1524" height="11.5886" filterUnits="userSpaceOnUse" color-interpolation-filters="sRGB">
<feFlood flood-opacity="0" result="BackgroundImageFix"/>
<feColorMatrix in="SourceAlpha" type="matrix" values="0 0 0 0 0 0 0 0 0 0 0 0 0 0 0 0 0 0 127 0" result="hardAlpha"/>
<feOffset dx="1.21805" dy="1.51305"/>
<feGaussianBlur stdDeviation="0.756525"/>
<feColorMatrix type="matrix" values="0 0 0 0 1 0 0 0 0 1 0 0 0 0 1 0 0 0 0.24 0"/>
<feBlend mode="normal" in2="BackgroundImageFix" result="effect1_dropShadow_74_596"/>
<feBlend mode="normal" in="SourceGraphic" in2="effect1_dropShadow_74_596" result="shape"/>
</filter>
<linearGradient id="paint0_linear_74_596" x1="24.1518" y1="26.0834" x2="25.3141" y2="8.49654" gradientUnits="userSpaceOnUse">
<stop stop-color="#3F3F3F"/>
<stop offset="1" stop-color="#5C5C5C"/>
</linearGradient>
<linearGradient id="paint1_linear_74_596" x1="22.7614" y1="22.7026" x2="16.355" y2="-7.69261" gradientUnits="userSpaceOnUse">
<stop stop-color="#3F3F3F"/>
<stop offset="1" stop-color="#777676"/>
</linearGradient>
<linearGradient id="paint2_linear_74_596" x1="19.885" y1="21.6067" x2="20.8537" y2="7.03907" gradientUnits="userSpaceOnUse">
<stop stop-color="#3F3F3F"/>
<stop offset="1" stop-color="#5C5C5C"/>
</linearGradient>
<linearGradient id="paint3_linear_74_596" x1="18.615" y1="18.9841" x2="13.1482" y2="-6.38358" gradientUnits="userSpaceOnUse">
<stop stop-color="#3F3F3F"/>
<stop offset="1" stop-color="#777676"/>
</linearGradient>
<linearGradient id="paint4_linear_74_596" x1="58.6854" y1="109.133" x2="64.6699" y2="92.5083" gradientUnits="userSpaceOnUse">
<stop stop-color="#3F3F3F"/>
<stop offset="1" stop-color="#777676"/>
</linearGradient>
<linearGradient id="paint5_linear_74_596" x1="185.499" y1="172.345" x2="252.735" y2="71.9982" gradientUnits="userSpaceOnUse">
<stop stop-color="#2C2C2C"/>
<stop offset="0.628054" stop-color="#515151"/>
<stop offset="1" stop-color="#7D7D7D"/>
</linearGradient>
<linearGradient id="paint6_linear_74_596" x1="187.304" y1="20.5951" x2="130.009" y2="76.1228" gradientUnits="userSpaceOnUse">
<stop stop-color="#E8EAE9"/>
<stop offset="0.498386" stop-color="#707072"/>
<stop offset="1" stop-color="#2F3032"/>
</linearGradient>
<linearGradient id="paint7_linear_74_596" x1="88.2716" y1="199.132" x2="142.092" y2="98.8002" gradientUnits="userSpaceOnUse">
<stop stop-color="#E8EAE9"/>
<stop offset="0.498386" stop-color="#707072"/>
<stop offset="1" stop-color="#2F3032"/>
</linearGradient>
<linearGradient id="paint8_linear_74_596" x1="65.1825" y1="96.683" x2="95.3084" y2="51.6005" gradientUnits="userSpaceOnUse">
<stop stop-color="#E8EAE9"/>
<stop offset="0.498386" stop-color="#707072"/>
<stop offset="1" stop-color="#2F3032"/>
</linearGradient>
<linearGradient id="paint9_linear_74_596" x1="187.364" y1="140.257" x2="194.36" y2="119.592" gradientUnits="userSpaceOnUse">
<stop stop-color="#ECEAEA"/>
<stop offset="1" stop-color="white" stop-opacity="0"/>
</linearGradient>
<linearGradient id="paint10_linear_74_596" x1="240.384" y1="143.303" x2="235.863" y2="133.872" gradientUnits="userSpaceOnUse">
<stop stop-color="#4B4B4B"/>
<stop offset="0.899322" stop-opacity="0"/>
</linearGradient>
</defs>
</svg>
